PathFileType	4	(X/Y/Z)	Sub_1_bilateral_squat02_.centers_.trc
DataRate	CameraRate	NumFrames	NumMarkers	Units	OrigDataRate	OrigDataStartFrame	OrigNumFrames
60.0	60.0	4	120	mm	100.0	135	597
Frame#	Time		Back_Left_Head		Back_Right_Head		C7		CenterHead		COP_Projection		COP_Projection_GroundY		F_LHIP		F_RHIP		Front_Left_Head		Front_Right_Head		Girdle_Center		Head		JC.L.Elbow		JC.L.Hand		JC.L.Wrist		JC.R.Elbow		JC.R.Hand		JC.R.Wrist		JC_L.Hip		JC_R.Hip		L.Ankle.Center		L.Ankle.Lateral		L.Elbow		L.Hand		L.Heel		L.Hip		L.Iliac.Crest		L.Knee.Center		L.Knee.Lateral		L.PSIS		L.Shank.Front		L.Shank.Rear		L.Shank.Upper		L.Shoulder		L.Thigh.Front		L.Thigh.Rear		L.Thigh.Upper		L.Toe		L.Wrist.Radial		L.Wrist.Ulnar		LAB_Origin		LAB_X		LAB_Y		LAB_Z		LDFA midpoint		LEFT_FOOT_BORDER1		LEFT_FOOT_BORDER2		LEFT_FOOT_BORDER3		LForearmX		LForearmY		LForearmZ		LHandX		LHandY		LHandZ		LHIP		LLowerArmX		LLowerArmY		LLowerArmZ		LMID_MALLEOLI_V		LPFA midpoint		mid_ASIS		Mid_ASIS_Projection		Mid_ASIS_Projection_Lateral		Mid_ASIS_Projection_LateralZ		North_Virtual_Origin		Offset		Pelvis.Center		Pelvis_Center		PelvisX		PelvisY		PelvisZ		R.Ankle.Center		R.Ankle.Lateral		R.Elbow		R.Hand		R.Heel		R.Hip		R.Iliac.Crest		R.Knee.Center		R.Knee.Lateral		R.Shank.Front		R.Shank.Rear		R.Shank.Upper		R.Shoulder		R.Thigh.Front		R.Thigh.Rear		R.Thigh.Upper		R.Toe		R.Wrist.Radial		R.Wrist.Ulnar		RDFA midpoint		RForearmX		RForearmY		RForearmZ		RHandX		RHandY		RHandZ		RHIP		RIGHT_FOOT_BORDER1		RIGHT_FOOT_BORDER2		RIGHT_FOOT_BORDER3		RLowerArmX		RLowerArmY		RLowerArmZ		RMID_MALLEOLI_V		RPFA midpoint		V.Sacral		v3d_lab_lat_distal		v3d_lab_lat_prox		v3d_lab_med_distal		v3d_lab_med_prox		V_L.Hip.skin		V_R.Hip.skin		V_V.Sacral.skin		Virtual_Lab_Origin		X.Shell.Lower.Shank.Left		X.Shell.Lower.Shank.Right		X.Shell.Lower.Thigh.Left		X.Shell.Lower.Thigh.Right		Z_Virtual_Lab_Origin
			X1	Y1	Z1	X2	Y2	Z2	X3	Y3	Z3	X4	Y4	Z4	X5	Y5	Z5	X6	Y6	Z6	X7	Y7	Z7	X8	Y8	Z8	X9	Y9	Z9	X10	Y10	Z10	X11	Y11	Z11	X12	Y12	Z12	X13	Y13	Z13	X14	Y14	Z14	X15	Y15	Z15	X16	Y16	Z16	X17	Y17	Z17	X18	Y18	Z18	X19	Y19	Z19	X20	Y20	Z20	X21	Y21	Z21	X22	Y22	Z22	X23	Y23	Z23	X24	Y24	Z24	X25	Y25	Z25	X26	Y26	Z26	X27	Y27	Z27	X28	Y28	Z28	X29	Y29	Z29	X30	Y30	Z30	X31	Y31	Z31	X32	Y32	Z32	X33	Y33	Z33	X34	Y34	Z34	X35	Y35	Z35	X36	Y36	Z36	X37	Y37	Z37	X38	Y38	Z38	X39	Y39	Z39	X40	Y40	Z40	X41	Y41	Z41	X42	Y42	Z42	X43	Y43	Z43	X44	Y44	Z44	X45	Y45	Z45	X46	Y46	Z46	X47	Y47	Z47	X48	Y48	Z48	X49	Y49	Z49	X50	Y50	Z50	X51	Y51	Z51	X52	Y52	Z52	X53	Y53	Z53	X54	Y54	Z54	X55	Y55	Z55	X56	Y56	Z56	X57	Y57	Z57	X58	Y58	Z58	X59	Y59	Z59	X60	Y60	Z60	X61	Y61	Z61	X62	Y62	Z62	X63	Y63	Z63	X64	Y64	Z64	X65	Y65	Z65	X66	Y66	Z66	X67	Y67	Z67	X68	Y68	Z68	X69	Y69	Z69	X70	Y70	Z70	X71	Y71	Z71	X72	Y72	Z72	X73	Y73	Z73	X74	Y74	Z74	X75	Y75	Z75	X76	Y76	Z76	X77	Y77	Z77	X78	Y78	Z78	X79	Y79	Z79	X80	Y80	Z80	X81	Y81	Z81	X82	Y82	Z82	X83	Y83	Z83	X84	Y84	Z84	X85	Y85	Z85	X86	Y86	Z86	X87	Y87	Z87	X88	Y88	Z88	X89	Y89	Z89	X90	Y90	Z90	X91	Y91	Z91	X92	Y92	Z92	X93	Y93	Z93	X94	Y94	Z94	X95	Y95	Z95	X96	Y96	Z96	X97	Y97	Z97	X98	Y98	Z98	X99	Y99	Z99	X100	Y100	Z100	X101	Y101	Z101	X102	Y102	Z102	X103	Y103	Z103	X104	Y104	Z104	X105	Y105	Z105	X106	Y106	Z106	X107	Y107	Z107	X108	Y108	Z108	X109	Y109	Z109	X110	Y110	Z110	X111	Y111	Z111	X112	Y112	Z112	X113	Y113	Z113	X114	Y114	Z114	X115	Y115	Z115	X116	Y116	Z116	X117	Y117	Z117	X118	Y118	Z118	X119	Y119	Z119	X120	Y120	Z120

135	2.23333	-148.70474	1368.05703	-211.17150	-0.36281	1373.61244	-215.91006	-75.25513	1279.60821	-208.19974	-71.43557	1404.07708	-272.99460	-60.15631	0.00000	-32.10188	-60.15631	0.00000	-132.10188	-123.89461	799.01375	-21.28053	9.74569	797.53114	-23.15953	-142.50834	1434.54160	-330.07917	-14.73524	1437.26347	-332.72289	-78.02296	1277.68712	-262.91671	-72.33964	1489.66411	-222.49713	-222.56151	1237.16413	-550.48434	-181.99235	1377.79763	-803.35010	-191.47455	1326.14688	-750.02211	65.35378	1227.28080	-560.67727	28.92229	1317.16143	-831.94692	26.70006	1325.11580	-758.91414	-110.70585	798.81446	-24.63190	0.87700	799.52396	-28.78913	-186.57121	73.81922	-143.13131	-221.71024	71.19233	-131.34139	-222.56151	1237.16413	-550.48434	-185.80365	1352.44644	-814.09341	-185.33997	45.62856	-76.52660	-157.52480	824.92335	-98.55816	-206.74558	868.84856	-68.15483	-192.20864	442.81463	-210.20862	-256.46084	454.00272	-199.76240	-108.95332	939.95283	32.13680	-251.64834	211.02411	-174.26986	-254.74651	220.51983	-125.99988	-263.91101	256.52229	-152.98160	-187.68338	1280.05312	-258.41779	-272.17538	578.62208	-134.94459	-255.13860	552.01960	-85.90028	-261.54929	596.19034	-95.10328	-211.19388	44.53146	-286.66902	-161.62847	1323.04725	-753.29591	-221.32062	1329.24652	-746.74832	0.00000	0.00000	-0.00000	999.99994	0.00000	-0.00000	0.00000	0.00000	-999.99994	0.00000	999.99994	-0.00000	-191.47455	1326.14688	-750.02211	-210.62430	35.00755	-287.28955	-216.14408	63.47154	-127.62429	-187.12989	26.82652	-74.06226	-142.46559	1316.88234	-746.51834	-184.51031	1370.95409	-728.95562	-198.51800	1305.98575	-704.81233	-132.57263	1370.37267	-801.75440	-177.80310	1413.21262	-768.30406	-188.32699	1343.29195	-767.72390	-200.68457	744.42165	-83.62470	-171.80896	1322.82127	-749.44990	-214.35646	1374.05372	-725.68182	-221.60681	1308.00934	-701.48354	-191.95681	62.01495	-145.09808	-207.01803	1281.65544	-650.25323	-57.89724	825.55676	-102.26998	-57.89724	0.00000	-102.26998	-60.15630	0.00000	-102.26997	-60.15630	100.00000	-102.26997	0.00000	0.00000	999.99994	-181.48508	1236.40630	-165.66845	-57.72757	829.76732	-96.99694	-60.15631	881.42311	-32.10188	42.20107	830.40268	-100.71997	-55.01313	767.50783	-175.20382	-60.54620	907.92426	-159.31451	84.29814	74.35100	-148.74631	117.07141	75.22486	-132.00936	65.35378	1227.28080	-560.67727	23.17401	1342.84766	-824.71722	81.80067	43.33772	-77.89095	41.73031	826.19028	-105.98180	88.09603	868.54466	-69.93028	63.78518	443.05805	-212.93271	125.89113	457.04125	-215.40017	140.36085	247.56754	-169.17977	135.04828	245.21878	-118.96123	152.35965	275.94542	-142.21933	31.63745	1275.32112	-267.41565	146.19102	608.86694	-143.91446	138.62171	559.14327	-106.23022	151.93521	603.76038	-102.71679	113.84662	47.34522	-281.64205	-3.20623	1318.50434	-759.20386	56.60634	1331.72703	-758.62443	26.70006	1325.11580	-758.91414	-21.57309	1312.48430	-755.73564	36.47224	1281.92688	-782.13436	35.31203	1303.31831	-714.74732	-19.35485	1304.15057	-831.99867	41.84506	1269.18846	-826.32854	27.41058	1322.57270	-782.26365	-2.94427	792.51752	-32.24821	115.64887	35.36280	-282.33077	110.67754	62.64975	-125.16901	87.91394	23.18813	-76.31786	7.60990	1322.18427	-761.49483	66.37845	1288.53823	-781.84465	58.55904	1308.41141	-714.43657	86.01659	62.65236	-146.16069	46.02692	1276.19829	-659.79570	-62.41537	937.28946	38.06621	0.00000	-1.00000	-1.00000	0.00000	0.00000	-1.00000	0.00000	-1.00000	1.00000	0.00000	0.00000	1.00000	-157.35511	829.13385	-93.28512	41.89998	830.40078	-100.70876	-62.23215	933.08695	32.78724	0.00000	0.00000	-0.00000	-256.95497	187.99060	-150.31529	140.12924	206.93743	-141.42745	-260.19852	532.15784	-124.17316	142.92741	553.49437	-154.59829	0.00000	999.99994	-0.00000
136	2.25000	-149.05058	1350.04553	-215.35113	-0.66209	1355.86654	-219.82805	-75.24486	1264.09503	-212.88795	-71.73852	1386.56122	-276.82744	-59.79764	0.00000	-26.73540	-59.79764	0.00000	-126.73541	-123.51804	788.63111	-14.68939	10.12512	787.22209	-16.41584	-142.81495	1417.25587	-333.82683	-15.00810	1420.25301	-336.30666	-78.10758	1262.00530	-267.48659	-72.83518	1471.89122	-225.81528	-223.26569	1222.23608	-553.97233	-182.48511	1363.60984	-806.41172	-192.33983	1311.80534	-753.27991	65.10187	1212.89019	-564.44476	28.99590	1303.80433	-835.23742	26.32880	1311.63885	-761.98461	-110.15645	788.12764	-17.87403	1.53287	789.14201	-22.16634	-186.95404	73.52680	-143.10561	-221.91267	70.94815	-131.28603	-223.26569	1222.23608	-553.97233	-186.70238	1338.36310	-817.26259	-185.32316	45.47830	-76.46554	-157.18512	812.97821	-92.21037	-206.32946	857.34859	-62.49523	-194.90624	440.98234	-214.41212	-259.54278	452.07722	-202.61955	-108.66091	930.20546	36.43708	-253.06482	209.91148	-175.54037	-256.07494	219.95106	-127.36341	-265.57270	255.57965	-154.70265	-186.86770	1264.67734	-262.99470	-273.87270	574.09986	-133.49547	-256.10890	545.89409	-85.73385	-262.67106	590.35162	-93.26701	-211.58606	45.00464	-286.57725	-162.61438	1308.33620	-756.76136	-222.06529	1315.27467	-749.79853	0.00000	0.00000	-0.00000	999.99994	0.00000	-0.00000	0.00000	0.00000	-999.99994	0.00000	999.99994	-0.00000	-192.33983	1311.80534	-753.27991	-210.95679	34.44812	-286.83452	-215.58893	62.45671	-127.06070	-186.98178	25.19636	-73.70466	-143.43512	1301.88107	-750.15168	-184.64652	1356.41081	-732.04046	-199.34657	1291.51208	-708.12367	-133.16214	1355.50825	-805.16301	-177.59928	1398.78158	-771.21199	-189.06735	1329.00834	-770.92368	-200.07109	732.57886	-75.99395	-172.66197	1308.20843	-752.85324	-214.37198	1359.88014	-728.55902	-222.34212	1293.81813	-704.63728	-192.29033	60.63353	-145.22036	-207.80277	1267.02069	-653.62610	-57.46252	813.88389	-96.04280	-57.46252	0.00000	-96.04280	-59.79763	0.00000	-96.04279	-59.79763	100.00000	-96.04279	0.00000	0.00000	999.99994	-181.06367	1221.69940	-169.58488	-57.30137	818.17505	-90.83495	-59.79764	870.80963	-26.73540	42.62072	819.08246	-94.67503	-54.50378	754.73475	-168.08353	-60.44262	895.35992	-154.33670	85.02161	73.81831	-148.93683	117.22261	75.02568	-132.09982	65.10187	1212.89019	-564.44476	22.72270	1329.44586	-827.97552	81.80783	43.21624	-77.82953	42.26009	814.78956	-99.87522	88.33857	858.09021	-64.30998	66.86924	441.75670	-217.97149	128.71160	455.35607	-218.57723	141.83720	246.65752	-170.98489	136.60188	245.05521	-120.78909	153.90775	275.18506	-144.36057	30.65255	1259.33329	-271.97850	148.46074	604.80654	-141.74280	140.31360	553.68415	-105.85803	153.60725	598.20748	-100.74845	113.92780	47.54919	-281.56368	-3.73264	1304.45819	-762.59855	56.39025	1318.81930	-761.37071	26.32880	1311.63885	-761.98461	-21.73980	1298.14245	-759.29670	37.03525	1268.82598	-785.48785	34.97484	1289.61880	-717.93510	-19.05023	1289.96709	-835.50700	42.71714	1256.05224	-829.63040	27.18695	1309.11815	-785.55361	-2.21930	782.10800	-25.58014	116.07260	34.87185	-281.95078	110.54174	61.98058	-124.77688	88.16525	22.21920	-75.99002	7.58904	1308.48281	-764.77234	67.09666	1276.00655	-784.87395	58.33673	1295.15094	-717.37053	86.65474	61.81152	-146.51377	45.71534	1262.26450	-663.21469	-62.13275	927.73533	42.57199	0.00000	-1.00000	-1.00000	0.00000	0.00000	-1.00000	0.00000	-1.00000	1.00000	0.00000	0.00000	1.00000	-157.02397	817.26937	-87.00252	42.42124	819.08072	-94.66737	-61.94391	923.45309	37.35771	0.00000	0.00000	-0.00000	-258.08600	187.10076	-151.32117	141.24445	206.26996	-142.85995	-261.74815	527.33323	-124.54698	145.12028	549.63505	-154.44064	0.00000	999.99994	-0.00000
137	2.26667	-149.25627	1331.86044	-219.32229	-0.88100	1337.81363	-223.71249	-75.24670	1248.23047	-217.38167	-71.94081	1368.68306	-280.62312	-59.44033	0.00000	-21.60370	-59.44033	0.00000	-121.60370	-123.13654	777.91312	-8.41411	10.50789	776.52820	-10.06040	-143.00063	1399.55245	-337.53373	-15.18917	1402.64463	-339.90068	-77.99978	1245.79495	-271.41433	-73.19891	1453.83130	-229.24981	-224.10247	1206.92680	-557.24183	-183.06649	1349.04235	-809.14083	-193.32432	1297.01379	-756.33258	64.92363	1198.00880	-568.08904	28.98270	1290.54667	-838.37429	26.06086	1297.76972	-765.05649	-109.63895	777.11600	-11.39935	2.20631	778.42574	-15.86631	-187.12168	73.48087	-142.82495	-222.19385	70.68345	-131.25864	-224.10247	1206.92680	-557.24183	-187.70505	1323.94291	-820.14188	-185.32719	45.37680	-76.38967	-156.91571	800.81259	-86.11527	-206.10946	845.40087	-57.01596	-197.77455	439.19618	-218.75468	-262.59464	450.05420	-205.68221	-108.34730	920.00688	40.67083	-254.54711	208.90842	-176.69861	-257.50655	219.42228	-128.58255	-267.40202	254.66964	-156.39314	-185.59913	1248.69545	-266.39074	-275.62214	569.55886	-132.44047	-257.24046	539.78540	-85.88289	-263.88762	584.47021	-91.85546	-211.96134	45.43734	-286.48234	-163.73441	1293.16186	-760.02085	-222.91423	1300.86559	-752.64427	0.00000	0.00000	-0.00000	999.99994	0.00000	-0.00000	0.00000	0.00000	-999.99994	0.00000	999.99994	-0.00000	-193.32432	1297.01379	-756.33258	-211.51505	34.02547	-286.36230	-215.34407	61.45489	-126.46678	-186.69500	23.85621	-73.37110	-144.53933	1286.41053	-753.58878	-184.87855	1341.40856	-734.93862	-200.29775	1276.60258	-711.22429	-133.85457	1340.24926	-808.24533	-177.48462	1383.88981	-773.72286	-189.91972	1314.28222	-773.85979	-199.53170	720.51942	-68.70488	-173.63412	1293.13680	-756.06055	-214.46846	1345.26048	-731.25028	-223.18826	1279.20208	-707.58192	-192.59878	59.48455	-145.35146	-208.71339	1251.97023	-656.78722	-57.05387	801.98205	-90.10363	-57.05387	0.00000	-90.10363	-59.44033	-0.00000	-90.10363	-59.44033	100.00000	-90.10363	0.00000	0.00000	999.99994	-180.76277	1206.50842	-173.31821	-56.89944	806.34645	-84.95677	-59.44033	859.86566	-21.60370	43.01401	807.51643	-88.94717	-54.04610	741.83477	-161.31098	-60.37169	882.62164	-149.53147	85.11240	73.48379	-148.77179	117.34333	74.80777	-132.15431	64.92363	1198.00880	-568.08904	22.56818	1316.10287	-830.92059	81.78842	43.06954	-77.77815	42.80795	803.15145	-94.09199	88.56095	847.41489	-59.16310	69.91857	440.15782	-222.12359	131.59119	453.72799	-221.54502	143.28420	245.58656	-172.73084	137.81353	244.22709	-122.60314	155.56591	274.34446	-146.39201	29.59957	1242.89433	-276.43790	150.58424	600.59172	-139.71423	141.95317	548.03056	-105.51492	155.25726	592.61515	-98.77409	113.99615	47.70893	-281.46438	-4.03488	1290.40419	-765.70236	56.15659	1305.13531	-764.41063	26.06086	1297.76972	-765.05649	-21.95145	1284.04143	-762.53661	37.00118	1255.14960	-788.80148	34.72843	1275.52006	-721.12681	-18.99837	1276.49192	-838.90180	42.90716	1242.81356	-833.11687	27.00128	1295.44489	-788.65442	-1.45973	771.38241	-19.27645	115.71019	34.67001	-281.70285	110.78144	61.55744	-124.47123	88.46639	21.78156	-75.66797	7.40751	1294.60904	-767.97757	67.09690	1262.51524	-788.15562	58.11510	1281.20387	-720.55355	87.12118	61.41508	-146.93975	45.49225	1247.88927	-666.57275	-61.82678	917.74924	46.89624	0.00000	-1.00000	-1.00000	0.00000	0.00000	-1.00000	0.00000	-1.00000	1.00000	0.00000	0.00000	1.00000	-156.76128	805.17702	-80.96841	42.96238	807.51585	-88.94514	-61.63418	913.39471	41.74233	0.00000	0.00000	-0.00000	-259.30835	186.32266	-152.23303	142.38888	205.51423	-144.26325	-263.40971	522.48557	-125.24479	147.42329	545.79547	-154.29515	0.00000	999.99994	-0.00000
138	2.28333	-149.56413	1313.68675	-223.08140	-1.19325	1319.53054	-227.29688	-75.37847	1232.11362	-221.58910	-72.14305	1350.53025	-284.26549	-59.12486	0.00000	-16.81163	-59.12486	0.00000	-116.81162	-122.79765	767.10790	-2.65001	10.84689	765.70650	-4.27267	-143.09285	1381.53016	-341.23405	-15.29575	1384.54255	-343.46640	-77.65520	1229.13494	-274.75115	-73.39131	1435.62118	-232.76833	-225.09408	1191.47957	-560.22753	-183.63535	1334.03896	-811.83850	-194.41697	1282.01957	-759.18248	64.85067	1182.92766	-571.55432	29.00322	1277.30970	-841.41517	26.08240	1283.79090	-767.99349	-109.11230	766.00699	-5.46230	2.83154	767.51492	-10.20989	-187.36927	73.32736	-142.90653	-222.40734	70.44127	-131.25839	-225.09408	1191.47957	-560.22753	-188.73061	1309.06870	-822.89441	-185.33027	45.28454	-76.33969	-156.66228	788.77246	-80.40341	-206.02375	833.30777	-51.79016	-200.54265	437.87528	-223.28342	-265.39301	448.23531	-208.82762	-108.15551	909.59511	44.83611	-255.81792	207.88348	-178.00977	-258.90750	218.83082	-130.02782	-269.05835	253.75772	-158.08994	-183.88728	1232.07816	-268.85855	-277.42493	565.23888	-131.84024	-258.55662	533.93309	-86.47334	-265.23716	578.78527	-90.84179	-212.20723	45.75754	-286.40255	-164.90893	1277.71857	-763.06745	-223.92503	1286.32067	-755.29756	0.00000	0.00000	-0.00000	999.99994	0.00000	-0.00000	0.00000	0.00000	-999.99994	0.00000	999.99994	-0.00000	-194.41697	1282.01957	-759.18248	-212.07955	33.83433	-285.92006	-215.32178	60.61580	-125.90155	-186.41509	22.84316	-73.06952	-145.77831	1270.67048	-756.84761	-185.14512	1326.18466	-737.65435	-201.36600	1261.51037	-714.11495	-134.57000	1324.43394	-811.28096	-177.26157	1368.65962	-776.33121	-190.84239	1299.26628	-776.64020	-199.04552	708.57943	-61.99011	-174.79319	1277.86636	-759.11366	-214.65322	1330.48577	-733.76932	-224.19451	1264.45851	-710.33120	-192.91244	58.62211	-145.51493	-209.75553	1236.74950	-659.70498	-56.71241	790.11880	-84.64234	-56.71241	0.00000	-84.64234	-59.12486	0.00000	-84.64234	-59.12486	100.00000	-84.64234	0.00000	0.00000	999.99994	-180.43173	1191.03586	-176.75874	-56.55587	794.54200	-79.54593	-59.12486	848.76307	-16.81163	43.34519	795.88770	-83.78281	-53.67072	729.17262	-155.16656	-60.34840	870.06806	-144.97827	85.62794	72.94665	-148.34795	117.49360	74.61387	-132.18903	64.85067	1182.92766	-571.55432	22.50825	1302.78146	-833.69993	81.79053	42.95642	-77.68391	43.23745	791.46520	-88.88127	88.63048	836.63607	-54.39388	72.27362	439.01275	-226.35457	134.43364	452.06138	-224.53330	144.77883	244.37371	-174.57588	139.35805	243.57887	-124.46720	157.29160	273.39490	-148.61062	28.57688	1226.19170	-280.64372	152.77828	596.19354	-137.76095	143.43179	543.03313	-105.67013	156.84696	586.86363	-97.00519	114.08610	47.85795	-281.34590	-3.98647	1276.32450	-768.65625	56.15127	1291.25718	-767.33068	26.08240	1283.79090	-767.99349	-21.90403	1269.94421	-765.63280	37.15260	1241.33765	-791.97614	34.72839	1261.29663	-724.18419	-18.95139	1263.17055	-842.07472	43.01867	1229.55213	-836.64178	27.02342	1281.70284	-791.64791	-0.79744	760.44346	-13.61572	115.00944	34.69979	-281.47319	111.09367	61.25089	-124.15562	88.36406	21.69194	-75.36745	7.43086	1280.64653	-771.03695	67.22138	1248.80392	-791.31338	58.09381	1267.06763	-723.61468	87.25157	61.32796	-147.37353	45.46653	1233.35934	-669.77385	-61.53731	907.40733	51.01908	0.00000	-1.00000	-1.00000	0.00000	0.00000	-1.00000	0.00000	-1.00000	1.00000	0.00000	0.00000	1.00000	-156.50573	793.19566	-75.30700	43.39400	795.88839	-83.78485	-61.34256	902.99488	45.91469	0.00000	0.00000	-0.00000	-260.40189	185.53527	-153.30788	143.64646	204.68977	-145.76104	-265.17416	517.90973	-126.32446	149.79824	541.92184	-154.21967	0.00000	999.99994	-0.00000
